HIERARCHY
ROOT Hips
{
	OFFSET 0.000000 0.000000 0.000000
	CHANNELS 6 Xposition Yposition Zposition Xrotation Yrotation Zrotation
	JOINT LeftUpLeg_virtual
	{
		OFFSET 0.000000 0.000000 0.000000
		CHANNELS 3 Xrotation Yrotation Zrotation
		JOINT LeftUpLeg
		{
			OFFSET 11.394100 -6.187798 -0.413800
			CHANNELS 3 Xrotation Yrotation Zrotation
			JOINT LeftLeg
			{
				OFFSET 0.430247 -32.302673 3.732800
				CHANNELS 3 Xrotation Yrotation Zrotation
				JOINT LeftFoot
				{
					OFFSET -0.430247 -48.264931 -6.423300
					CHANNELS 3 Xrotation Yrotation Zrotation
					JOINT LeftToeBase
					{
						OFFSET 4.230900 -16.068199 23.438400
						CHANNELS 3 Xrotation Yrotation Zrotation
						JOINT LeftToe_End
						{
							OFFSET 4.510700 0.695400 19.974600
							CHANNELS 3 Xrotation Yrotation Zrotation
							End Site
							{
								OFFSET 0 0 0
							}
						}
					}
				}
			}
		}
	}
	JOINT RightUpLeg_virtual
	{
		OFFSET 0.000000 0.000000 0.000000
		CHANNELS 3 Xrotation Yrotation Zrotation
		JOINT RightUpLeg
		{
			OFFSET -11.333700 -6.187798 -0.413800
			CHANNELS 3 Xrotation Yrotation Zrotation
			JOINT RightLeg
			{
				OFFSET -0.430392 -32.302628 3.733000
				CHANNELS 3 Xrotation Yrotation Zrotation
				JOINT RightFoot
				{
					OFFSET 0.430392 -48.264973 -6.423500
					CHANNELS 3 Xrotation Yrotation Zrotation
					JOINT RightToeBase
					{
						OFFSET -4.230900 -16.068199 23.438400
						CHANNELS 3 Xrotation Yrotation Zrotation
						JOINT RightToe_End
						{
							OFFSET -4.510700 0.695400 19.974600
							CHANNELS 3 Xrotation Yrotation Zrotation
							End Site
							{
								OFFSET 0 0 0
							}
						}
					}
				}
			}
		}
	}
	JOINT Spine_virtual
	{
		OFFSET 0.000000 0.000000 0.000000
		CHANNELS 3 Xrotation Yrotation Zrotation
		JOINT Spine
		{
			OFFSET -0.002400 12.777504 0.315300
			CHANNELS 3 Xrotation Yrotation Zrotation
			JOINT Spine1
			{
				OFFSET -0.002067 5.816869 0.032633
				CHANNELS 3 Xrotation Yrotation Zrotation
				JOINT Spine1_split
				{
					OFFSET -0.002067 5.816869 0.032633
					CHANNELS 3 Xrotation Yrotation Zrotation
					JOINT Spine2
					{
						OFFSET -0.002067 5.816869 0.032633
						CHANNELS 3 Xrotation Yrotation Zrotation
						JOINT Neck_virtual
						{
							OFFSET 0.000000 0.000000 0.000000
							CHANNELS 3 Xrotation Yrotation Zrotation
							JOINT Neck
							{
								OFFSET -0.003700 21.199493 -0.826900
								CHANNELS 3 Xrotation Yrotation Zrotation
								JOINT Head
								{
									OFFSET 0.000000 20.442200 4.834800
									CHANNELS 3 Xrotation Yrotation Zrotation
									JOINT HeadTop_End
									{
										OFFSET 0.000000 34.668396 4.968400
										CHANNELS 3 Xrotation Yrotation Zrotation
										End Site
										{
											OFFSET 0 0 0
										}
									}
								}
							}
						}
						JOINT LeftShoulder_virtual
						{
							OFFSET 0.000000 0.000000 0.000000
							CHANNELS 3 Xrotation Yrotation Zrotation
							JOINT LeftShoulder
							{
								OFFSET 3.288150 8.794197 -1.372250
								CHANNELS 3 Xrotation Yrotation Zrotation
								JOINT LeftShoulder_split
								{
									OFFSET 3.288150 8.794197 -1.372250
									CHANNELS 3 Xrotation Yrotation Zrotation
									JOINT LeftArm
									{
										OFFSET 11.953299 -2.279007 -0.146200
										CHANNELS 3 Xrotation Yrotation Zrotation
										JOINT LeftForeArm
										{
											OFFSET 18.448900 0.000000 0.000000
											CHANNELS 3 Xrotation Yrotation Zrotation
											JOINT LeftHand
											{
												OFFSET 29.527798 0.000000 0.000000
												CHANNELS 3 Xrotation Yrotation Zrotation
												End Site
												{
													OFFSET 0 0 0
												}
											}
										}
									}
								}
							}
						}
						JOINT RightShoulder_virtual
						{
							OFFSET 0.000000 0.000000 0.000000
							CHANNELS 3 Xrotation Yrotation Zrotation
							JOINT RightShoulder
							{
								OFFSET -3.249400 8.794197 -1.372250
								CHANNELS 3 Xrotation Yrotation Zrotation
								JOINT RightShoulder_split
								{
									OFFSET -3.249400 8.794197 -1.372250
									CHANNELS 3 Xrotation Yrotation Zrotation
									JOINT RightArm
									{
										OFFSET -11.953299 -2.279007 -0.146200
										CHANNELS 3 Xrotation Yrotation Zrotation
										JOINT RightForeArm
										{
											OFFSET -18.448900 0.000000 0.000000
											CHANNELS 3 Xrotation Yrotation Zrotation
											JOINT RightHand
											{
												OFFSET -29.527802 0.000000 0.000000
												CHANNELS 3 Xrotation Yrotation Zrotation
												End Site
												{
													OFFSET 0 0 0
												}
											}
										}
									}
								}
							}
						}
					}
				}
			}
		}
	}
}
MOTION
Frames: 4
Frame Time: 0.03333333
-0.401839 117.270386 4.263290 0.000000 0.000000 0.000000 -87.391984 -6.289023 -0.770490 -3.104864 22.082594 12.394933 -2.860369 0.879760 4.570216 19.642825 25.804562 -18.842089 -3.717128 -0.086398 0.680814 0.000000 0.000000 0.000000 -89.665426 -3.124856 0.966107 -7.408611 -23.331361 -14.961003 -0.490975 -3.385085 -5.681146 34.977429 -27.447286 29.434529 -12.343659 0.454644 -4.722192 0.000000 0.000000 0.000000 -87.219685 -6.719517 -2.636684 0.913618 -0.565546 -0.011839 -1.217350 0.270775 -0.221371 0.714401 0.785953 -0.327132 0.000000 0.000000 0.000000 -1.324189 0.351660 -0.244485 -6.185698 3.946182 -8.401441 5.786480 8.623201 -12.946163 0.000000 0.000000 0.000000 -0.380894 0.373200 -0.098739 0.470542 -6.013299 -0.823687 -0.350106 1.760984 -2.782602 44.246269 -42.113413 -32.581375 5.597952 -86.378957 5.006397 0.000000 0.000000 0.000000 -0.208535 0.666305 -0.486827 0.422299 0.652489 2.621448 7.500095 7.881599 -0.966259 -4.735826 1.805371 81.024977 -179.281333 54.969875 -179.821600 0.000000 0.000000 0.000000 
-0.386445 117.259445 4.254936 0.000000 0.000000 0.000000 -87.407529 -6.312369 -0.766170 -3.076446 22.037732 12.367546 -2.860876 0.846851 4.568546 19.662537 25.794343 -18.844765 -3.729927 -0.088790 0.661135 0.000000 0.000000 0.000000 -89.664183 -3.130362 0.984887 -7.449038 -23.330979 -14.979867 -0.454943 -3.403005 -5.697917 34.982252 -27.481029 29.441264 -12.276505 0.454600 -4.732668 0.000000 0.000000 0.000000 -87.236365 -6.730354 -2.635709 0.918770 -0.567074 0.000063 -1.220217 0.273452 -0.221007 0.721527 0.781512 -0.318122 0.000000 0.000000 0.000000 -1.332597 0.359442 -0.249832 -6.165338 3.996619 -8.401865 6.356329 8.781501 -13.319030 0.000000 0.000000 0.000000 -0.369417 0.369630 -0.096823 0.460389 -6.035270 -0.873888 -0.351885 1.772437 -2.682343 44.205654 -42.120855 -32.661715 5.515623 -86.349014 4.931126 0.000000 0.000000 0.000000 -0.200639 0.670441 -0.487958 0.428924 0.662491 2.643809 7.496839 7.895694 -0.972805 -4.697207 1.784868 80.930099 -179.278437 54.907344 -179.812175 0.000000 0.000000 0.000000 
-0.369836 117.243530 4.241318 0.000000 0.000000 0.000000 -87.419919 -6.341863 -0.767932 -3.059695 21.987462 12.340047 -2.854339 0.812042 4.568390 19.677230 25.783530 -18.848337 -3.741828 -0.091853 0.642009 0.000000 0.000000 0.000000 -89.661225 -3.147381 0.994193 -7.496678 -23.334428 -14.996035 -0.428787 -3.420729 -5.713568 34.981487 -27.516160 29.442879 -12.211917 0.452948 -4.739257 0.000000 0.000000 0.000000 -87.247894 -6.747283 -2.634852 0.917367 -0.565804 0.016437 -1.226276 0.280118 -0.221268 0.727959 0.794471 -0.297637 0.000000 0.000000 0.000000 -1.348732 0.368824 -0.253661 -6.139581 4.068937 -8.414067 7.111376 8.968493 -13.824134 0.000000 0.000000 0.000000 -0.360954 0.369247 -0.091700 0.446001 -6.041514 -0.934043 -0.348234 1.773911 -2.589483 44.186194 -42.136482 -32.689671 5.337217 -86.325340 4.758831 0.000000 0.000000 0.000000 -0.195235 0.675159 -0.492460 0.431487 0.629269 2.654756 7.516882 7.929971 -0.973359 -4.655822 1.764977 80.842775 -179.266374 54.831304 -179.818582 0.000000 0.000000 0.000000 
-0.353549 117.225540 4.221794 0.000000 0.000000 0.000000 -87.427617 -6.373486 -0.775824 -3.056575 21.935929 12.315294 -2.843319 0.775869 4.569675 19.686984 25.772261 -18.855164 -3.753075 -0.095372 0.624727 0.000000 0.000000 0.000000 -89.655051 -3.171719 0.994388 -7.546098 -23.343445 -15.008475 -0.420264 -3.437400 -5.726509 34.978304 -27.546535 29.441305 -12.154156 0.450156 -4.743714 0.000000 0.000000 0.000000 -87.252347 -6.769506 -2.636892 0.908975 -0.563423 0.036452 -1.234092 0.287630 -0.221507 0.727085 0.816379 -0.277227 0.000000 0.000000 0.000000 -1.370041 0.378043 -0.255002 -6.126835 4.153977 -8.428087 7.943941 9.145721 -14.394161 0.000000 0.000000 0.000000 -0.357002 0.370850 -0.084007 0.430480 -6.030811 -0.997901 -0.339917 1.766362 -2.516640 44.194797 -42.160599 -32.673040 5.068840 -86.304454 4.494873 0.000000 0.000000 0.000000 -0.193125 0.678722 -0.499141 0.430498 0.557243 2.651423 7.553763 7.968211 -0.967746 -4.621104 1.748982 80.784103 -179.246662 54.764293 -179.839659 0.000000 0.000000 0.000000 
